<?xml version="1.0" encoding="UTF-8" standalone="no"?>
<!-- Generator: Adobe Illustrator 17.0.1, SVG Export Plug-In . SVG Version: 6.00 Build 0)  -->

<svg
   xmlns:dc="http://purl.org/dc/elements/1.1/"
   xmlns:cc="http://creativecommons.org/ns#"
   xmlns:rdf="http://www.w3.org/1999/02/22-rdf-syntax-ns#"
   xmlns:svg="http://www.w3.org/2000/svg"
   xmlns="http://www.w3.org/2000/svg"
   xmlns:xlink="http://www.w3.org/1999/xlink"
   xmlns:sodipodi="http://sodipodi.sourceforge.net/DTD/sodipodi-0.dtd"
   xmlns:inkscape="http://www.inkscape.org/namespaces/inkscape"
   version="1.1"
   x="0px"
   y="0px"
   width="86px"
   height="86px"
   viewBox="0 0 86 86"
   enable-background="new 0 0 86 86"
   xml:space="preserve"
   id="svg2"
   inkscape:version="0.48.4 r9939"
   sodipodi:docname="harbour-sailfactor.svg"
   inkscape:export-filename="C:\Users\Lauri\Sailfish\sailfactor\src\harbour-sailfactor.png"
   inkscape:export-xdpi="90"
   inkscape:export-ydpi="90"><metadata
   id="metadata39"><rdf:RDF><cc:Work
       rdf:about=""><dc:format>image/svg+xml</dc:format><dc:type
         rdf:resource="http://purl.org/dc/dcmitype/StillImage" /><dc:title /></cc:Work></rdf:RDF></metadata><defs
   id="defs37">
	
		<linearGradient
   gradientTransform="matrix(0,-1,1,0,-516.5383,1362.6759)"
   y2="517.0571"
   x2="1362.157"
   y1="602.0194"
   x1="1277.1947"
   gradientUnits="userSpaceOnUse"
   id="SVGID_1_">
		<stop
   id="stop7"
   style="stop-color:#00cf00;stop-opacity:1;"
   offset="0" />
		<stop
   id="stop9"
   style="stop-color:#2419fd;stop-opacity:1;"
   offset="0.98970002" />
	</linearGradient>
	
	
	
	
	
	
<linearGradient
   inkscape:collect="always"
   xlink:href="#SVGID_1_"
   id="linearGradient3031"
   gradientUnits="userSpaceOnUse"
   gradientTransform="matrix(0,-1,1,0,-516.5383,1362.6759)"
   x1="1277.1947"
   y1="602.0194"
   x2="1362.157"
   y2="517.0571" />
		
		
		
	</defs><sodipodi:namedview
   pagecolor="#ffffff"
   bordercolor="#666666"
   borderopacity="1"
   objecttolerance="10"
   gridtolerance="10"
   guidetolerance="10"
   inkscape:pageopacity="0"
   inkscape:pageshadow="2"
   inkscape:window-width="1329"
   inkscape:window-height="964"
   id="namedview35"
   showgrid="true"
   inkscape:zoom="7.7617303"
   inkscape:cx="56.529159"
   inkscape:cy="41.908887"
   inkscape:window-x="2024"
   inkscape:window-y="56"
   inkscape:window-maximized="0"
   inkscape:current-layer="svg2"
   inkscape:snap-global="false"><inkscape:grid
     type="xygrid"
     id="grid5069" /></sodipodi:namedview>
<g
   id="Layer_2"
   display="none">
</g>
<path
   inkscape:connector-curvature="0"
   style="fill:url(#linearGradient3031)"
   id="path11"
   d="M 0.1,1.53 V 43 c 0,23.693 19.208,42.9 42.9,42.9 h 41.47 c 0.79,0 1.43,-0.64 1.43,-1.43 V 43 C 85.9,19.306 66.692,0.1 43,0.1 H 1.53 C 0.74,0.1 0.1,0.74 0.1,1.53 z" /><g
   id="g13">
		<polygon
   style="fill:#ffffff"
   id="polygon15"
   points="30.504,59.128 35.432,64.055 32.78,66.704 27.855,61.777 22.928,66.704 20.279,64.055 25.207,59.128 20.279,54.201 22.928,51.551 27.855,56.479 32.78,51.551 35.432,54.201 " />
	</g><g
   id="g29"
   style="fill:#000080">
		<path
   style="fill:#000080"
   inkscape:connector-curvature="0"
   id="path31"
   d="m 43.05,44.477 c 0,-0.788 0.639,-1.427 1.427,-1.427 h 39.947 c 0.788,0 1.427,0.639 1.427,1.427 v 39.947 c 0,0.788 -0.639,1.427 -1.427,1.427 H 44.477 c -0.788,0 -1.427,-0.639 -1.427,-1.427 V 44.477 z" />
	</g><path
   style="fill:#ffffff"
   inkscape:connector-curvature="0"
   id="path33"
   d="M 52.772,57.658 V 53.749 H 67.43 v 3.909 H 52.772 z m 0,6.841 V 60.59 H 67.43 v 3.909 H 52.772 z" />
<path
   style="fill:#c8f237;fill-opacity:1;stroke:#340000;stroke-width:0.36440679;stroke-opacity:1"
   d="m 43.578352,85.110192 c -0.09649,-0.252174 -0.132853,-9.723539 -0.08081,-21.04748 l 0.09462,-20.588983 20.95339,0 20.953388,0 0,20.95339 0,20.953389 -20.872576,0.09409 c -16.504128,0.0744 -20.909295,-0.0018 -21.048011,-0.364406 l 0,0 z m 24.064657,-22.505107 0,-2.004238 -7.561441,-0.09849 -7.561441,-0.09849 0,2.201227 0,2.201227 7.561441,-0.09849 7.561441,-0.09849 0,-2.004237 z m 0,-6.923729 0,-2.004237 -7.561441,-0.09849 -7.561441,-0.09849 0,2.201227 0,2.201227 7.561441,-0.09849 7.561441,-0.09849 0,-2.004237 z"
   id="path3050"
   inkscape:connector-curvature="0" /><text
   xml:space="preserve"
   style="font-size:29.44442558px;font-style:normal;font-weight:bold;line-height:125%;letter-spacing:0px;word-spacing:0px;fill:#ffffff;fill-opacity:1;stroke:none;font-family:Sans;-inkscape-font-specification:Sans Bold"
   x="17.977354"
   y="35.070293"
   id="text4222"
   sodipodi:linespacing="125%"
   transform="scale(1.0245552,0.97603326)"><tspan
     sodipodi:role="line"
     id="tspan4224"
     x="17.977354"
     y="35.070293">?</tspan></text>




<text
   xml:space="preserve"
   style="font-size:29.44442558px;font-style:normal;font-weight:bold;line-height:125%;letter-spacing:0px;word-spacing:0px;fill:#ffffff;fill-opacity:1;stroke:none;font-family:Sans;-inkscape-font-specification:Sans Bold"
   x="50.015873"
   y="35.094952"
   id="text4222-1"
   sodipodi:linespacing="125%"
   transform="scale(1.0245552,0.9760333)"><tspan
     sodipodi:role="line"
     id="tspan4224-7"
     x="50.015873"
     y="35.094952">?</tspan></text>
</svg>